<svg xmlns="http://www.w3.org/2000/svg" width="1035" height="257" viewBox="0 0 1035 257">
    <g fill="#FFF" fill-rule="evenodd">
        <path d="M189.805 182.89L152.27 212v-87.866a48 48 0 0 1 19.132-38.35l36.986-27.842v87.018a48 48 0 0 1-18.583 37.93zm-95.582.05A48 48 0 0 1 75.628 145V57.966l37.005 27.883a48 48 0 0 1 19.113 38.336v87.838L94.223 182.94zm168.958 45.698l-36.033 27.461V68.538a51 51 0 0 1 20.004-40.5L283.267.398v187.677a51 51 0 0 1-20.086 40.563zm-242.262.022A51 51 0 0 1 .833 188.098V.42l36.115 27.64a51 51 0 0 1 20.004 40.5v187.562L20.919 228.66z"/>
        <path fill-rule="nonzero" d="M541.027 102.472c13.053 0 24.214 4.397 33.533 13.207 9.271 8.598 13.859 19.204 13.859 31.939 0 12.715-4.574 23.332-13.86 32.11-9.353 8.674-20.531 13.035-33.532 13.035-13.152 0-24.337-4.347-33.713-13.041-9.139-8.801-13.679-19.436-13.679-32.104 0-12.688 4.554-23.313 13.686-31.938 9.334-8.825 20.501-13.208 33.706-13.208zm-23.63 45.146c0 6.643 2.343 12.43 6.858 16.944 4.543 4.544 10.169 6.857 16.772 6.857 6.603 0 12.229-2.313 16.772-6.857 4.563-4.745 6.857-10.367 6.857-16.944 0-6.604-2.314-12.229-6.857-16.772-4.495-4.675-10.11-7.03-16.772-7.03-6.662 0-12.277 2.355-16.786 7.043-4.53 4.53-6.843 10.155-6.843 16.759zm106.383-5.357v47.91h-23.762v-85.107h23.762v14.277l1.888-3.955c3.498-7.33 13.096-12.223 24.506-12.223 20.559 0 32.358 12.877 32.358 35.123v51.885H658.77v-48.774c0-10.856-6.253-17.408-16.89-17.408-10.484 0-18.1 7.615-18.1 18.272zm160.296 3.801c0 2.235-.03 5.784-.23 8.893h-65.95c.587 10.395 10.06 17.501 24.145 17.501 8.157 0 15.27-2.714 21.333-8.182l16.046 11.522c-10.557 10.5-24.51 16.449-38.588 16.449-14 0-25.2-4.001-33.888-12.007-8.577-8.073-12.813-18.683-12.813-32.102v-.691c0-13.354 4.366-24.162 12.994-32.282 8.564-8.229 19.683-12.345 33.188-12.345 12.97 0 23.454 4.168 31.605 12.49 8.14 8.308 12.158 18.44 12.158 30.754zm-65.925-7.475h41.99v-.992c0-8.69-8.901-15.507-19.828-15.507-11.654 0-21.326 6.687-22.07 15.423l-.092 1.076zm85.858-12.18h-11.404v-21.343h11.404V90.357a9 9 0 0 1 3.877-7.4l19.34-13.391-.15 35.498h19.358v21.344h-19.353v32.096c0 8.775 3.662 12.57 12.051 12.57 1.438 0 3.37-.169 5.574-.513v20.853c-3.101.688-6.865 1.003-11.622 1.003-19.489 0-29.075-9.916-29.075-30.111v-35.898zm83.01 15.854v47.91h-23.763V90.453a9 9 0 0 1 3.99-7.476l19.773-13.252v49.469l1.895-4.17c3.293-7.245 12.294-11.86 23.462-11.86 19.875 0 31.321 12.882 31.321 35.122v51.885h-23.763v-48.774c0-10.831-5.874-17.408-15.853-17.408-10.06 0-17.062 7.536-17.062 18.272zm147.684 22.372h.042v25.543h-18.78v-8.45l-.564.684c-5.477 6.64-15.035 10.007-28.61 10.007-18.941 0-31.495-10.224-31.495-25.619 0-17.407 11.36-26.19 37.638-28.734 14.215-1.363 18.522-3.138 18.522-8.936 0-5.5-4.467-8.25-12.743-8.25-9.763 0-17.17 2.827-23.287 9.421l-14.447-10.7c8.878-11.4 21.685-17.3 37.389-17.3 22.885 0 36.332 10.55 36.332 28.384v32.832l.003 1.118zm-30.319-10.381l-3.372.56c-2.285.207-7.29.958-9.47 1.458-10.062 1.548-14.19 4.165-14.19 9.467 0 5.03 3.516 7.44 11.289 7.44 12.783 0 19.72-5.326 19.72-15.321v-4.88c-1.086.47-2.018.757-3.977 1.276zM380.43 190.17h-23.59V75.605l62.598 47.695 62.598-47.695v114.566h-23.59v-66.212l-39.008 29.503-39.008-29.503v66.212z"/>
    </g>
</svg>
